<svg xmlns="http://www.w3.org/2000/svg" width="512" height="512" viewBox="0 0 512 512"><rect width="100%" height="100%" fill="#1e40af"/><path fill="#ffffff" d="M153.44 275.645h51.06l-19.54-53.39q-1.44-3.55-3-8.43-1.55-4.89-3.1-10.55-1.45 5.66-3 10.6-1.56 4.94-3 8.6zm40.73-99.9 63.05 160.51h-23.09q-3.88 0-6.32-1.94-2.45-1.95-3.67-4.83l-11.98-32.75h-66.49l-11.99 32.75q-.89 2.55-3.44 4.66-2.56 2.11-6.33 2.11H100.6l63.16-160.51zm113.45 99.9h51.05l-19.53-53.39q-1.44-3.55-3-8.43-1.55-4.89-3.11-10.55-1.44 5.66-2.99 10.6-1.56 4.94-3 8.6zm40.73-99.9 63.05 160.51h-23.09q-3.88 0-6.33-1.94-2.44-1.95-3.66-4.83l-11.99-32.75h-66.49l-11.98 32.75q-.89 2.55-3.44 4.66-2.56 2.11-6.33 2.11h-23.31l63.16-160.51z"/></svg>