<?xml version="1.0" encoding="UTF-8"?>
<svg xmlns="http://www.w3.org/2000/svg" viewBox="0 0 2000 2000">
  <defs>
    <style>
      .cls-1 {
        opacity: .3;
      }

      .cls-1, .cls-2 {
        fill: #1800ff;
      }

      .cls-3, .cls-4, .cls-5 {
        fill: #0e2a47;
      }

      .cls-6 {
        fill: #fff;
      }

      .cls-7 {
        fill: #f2f2f2;
      }

      .cls-8 {
        fill: #f97316;
      }

      .cls-9 {
        fill: none;
      }

      .cls-9, .cls-4, .cls-5 {
        stroke: #0e2a47;
        stroke-linecap: round;
        stroke-linejoin: round;
      }

      .cls-9, .cls-5 {
        stroke-width: 51.91px;
      }

      .cls-4 {
        stroke-width: 45.44px;
      }

      .cls-10 {
        fill: #b22200;
        opacity: .4;
      }

      .cls-11 {
        fill: #999;
      }

      .cls-12 {
        fill: #8b5cf6;
      }
    </style>
  </defs>
  <g id="Layer_3" data-name="Layer 3">
    <path class="cls-8" d="M1045.81,392.9c56.49-52.89,148.93-118.99,253.95-113.28,130.22,7.08,69.14,146.06-60.31,187.1,6.57-1.24,232.38-42.68,237.77,59.44,1.83,34.56-20.45,53.46-52.17,62.55,2.12,1.54,273.91,200.87,320.31,493.09,27.25,171.54-27.83,377.25-143.34,532.39v.02c-85.52,114.85-204.16,202.01-347.03,227-47.74,8.35-92.78,12.49-134.88,13.37-253.9,5.49-421.21-78.54-421.21-78.54-30.22-3.83-173.32-42.84-389.99-220.21-47.99-39.29-93.12-129.16-130.79-141.16-102.8-127.81-163.56-354.41-18.09-656.11,25.07-52.02,59.05-104.32,104.05-155.74,335.88-383.78,781.62-210.05,781.62-210.05l.11.14ZM1390.64,1003.91c37.55,35.85,95.17,55.7,84.8-7.94-12.42-76.29-89.63-123.21-141.98-132.41-75.31-13.24-88.73,43.79-50.87,65.75,40.24,23.33,63.46,32.02,108.05,74.59ZM846.25,726.28c41.18,14.83,76.16-32.19,17.53-81.27-40.74-34.1-126.38-62.97-192.74-23.32-55.33,33.04-3.06,64.33,48.57,69.97,61.27,6.71,82.87,18.87,126.64,34.63ZM830.12,1411.31c17.48-25.87,16.89-56.79-1.27-69.07-18.19-12.3-47.1-1.28-64.57,24.56-17.5,25.87-16.92,56.81,1.27,69.09,18.17,12.3,47.1,1.28,64.57-24.58Z"/>
    <path d="M802.34,1188.92c32.56-45.83,173.38,41.6,156.26,72.75-26.61,48.42-106.95,23.36-106.95,23.36,0,0-74.77-60.29-49.31-96.11Z"/>
    <path d="M1475.44,995.97c10.37,63.64-47.25,43.79-84.8,7.94-44.59-42.58-67.81-51.26-108.05-74.59-37.86-21.97-24.44-78.99,50.87-65.75,52.35,9.2,129.56,56.12,141.98,132.41Z"/>
    <path d="M863.78,645.01c58.63,49.08,23.65,96.1-17.53,81.27-43.77-15.76-65.37-27.92-126.64-34.63-51.64-5.63-103.9-36.93-48.57-69.97,66.37-39.65,152-10.78,192.74,23.32Z"/>
    <path class="cls-11" d="M828.85,1342.24c18.17,12.28,18.75,43.2,1.27,69.07-17.48,25.87-46.41,36.88-64.57,24.58-18.19-12.28-18.77-43.22-1.27-69.09,17.48-25.84,46.38-36.86,64.57-24.56Z"/>
    <path class="cls-7" d="M1471.01,1602.94c-54.97,48.7-114.54,79.48-171.17,99.4-204.11,71.74-447.17,35.19-608.86-46.27-1.44-.73-2.9-1.46-4.41-2.23l386.76-925.81c5.68,3.22,11.44,6.1,17.33,8.61,101.86,39.29,257.15-23.61,400.24,143.39,103.66,120.95,144.15,299.85,117.26,459.34v.03c-17.34,102.8-62.68,197.54-137.16,263.54Z"/>
    <path class="cls-12" d="M1030.36,1284.51c83.7,177.21,398.91,252.66,269.46,417.82,56.75-19.63,116.22-50.72,171.19-99.42,74.47-65.99,119.82-160.73,137.15-263.53,0,0,.02-.02,0-.03-19.37-81.8-71.03-198.15-206.38-298.12-235.14-173.68-466.9,41.09-371.43,243.27Z"/>
    <path class="cls-7" d="M171.46,1060.04c3.99,73.33,23.96,137.34,49.59,191.62,92.42,195.62,289.25,342.84,460.84,400.6,1.52.51,3.08,1.04,4.69,1.57l386.76-925.81c-6.28-1.78-12.38-3.85-18.31-6.28-99.54-44.84-163.94-199.52-383.3-183.94-158.9,11.26-314.62,108.2-409.17,239.43l-.02.02c-60.94,84.59-96.46,183.43-91.07,282.79Z"/>
    <path class="cls-12" d="M707.68,1149.71c-184.89,65.01-460.1-106.19-486.61,101.97-25.92-54.17-45.61-118.32-49.59-191.65-5.4-99.35,30.12-198.2,91.07-282.78,0,0,0-.02.02-.02,71.81-43.71,190.88-88.74,357.12-62.72,288.81,45.2,298.92,361.02,88,435.2Z"/>
    <polyline class="cls-9" points="1721.86 602.44 1808.9 627.5 1708.49 713.08 1791.99 740.48"/>
    <polyline class="cls-9" points="1829.41 322.47 1959.48 359.91 1809.43 487.8 1934.21 528.74"/>
    <polyline class="cls-9" points="1557.52 274.94 1640.58 298.85 1544.76 380.52 1624.44 406.66"/>
    <path class="cls-6" d="M104.15,944.64c2.67-12.13,131.17-378.42,454.74-483.79,241.29-78.57,452.33-32.8,452.33-32.8l-24.87,27.96s-26.56,45.81,28.21,42.49c54.77-3.33,143.71-161.49,249.72-169.8,106.01-8.3,96.22,45.85,96.22,45.85l10.15-52.82-37.19-42.27-66.03.63-100.23,25.88-76.15,52.7-56.65,33.35s-322.77-123.1-595.46,57.8C166.24,630.7,104.15,944.64,104.15,944.64Z"/>
    <path class="cls-6" d="M1210.71,473.92s-36.07,40.49,9.84,45.37c45.91,4.88,223.86-35.12,248.43,7.69,0,0,1.42-64.44-93.94-68.33-95.36-3.89-164.32,15.27-164.32,15.27Z"/>
    <path class="cls-2" d="M1527.01,1699.2c5.1-5.28,10.2-10.3,15.29-15.09-5.01,5.13-10.13,10.16-15.29,15.09Z"/>
  </g>
  <g id="Layer_4" data-name="Layer 4">
    <path class="cls-1" d="M1748.6,1107.93c-.86.65-1.72,1.28-2.58,1.95,1.27-7.29,1.74-11.3,1.74-11.3,0,0,.37,3.25.84,9.35Z"/>
    <path class="cls-1" d="M746.83,1185.23s-6.07,115.87,116.25,152.84c122.32,36.97,134.52-74.85,125.16-91.37-9.36-16.52-17.94,72.94-90.89,57.35-72.95-15.58-154.28-60.13-150.53-118.82Z"/>
    <path class="cls-1" d="M1461.45,492.54s3.23,79.5-139.74,54.23c-142.97-25.27-169.63,18.79-95.66,73.82,73.98,55.04,212.54,53.86,252.04,12.47l-43.54-37.05s33.65-20.42,39-34.53c5.35-14.11,12.53-44.11-12.1-68.93Z"/>
    <path class="cls-1" d="M535.08,1165.49c.09-3.02.08-4.65.08-4.65,0,0,.31,1.91-.08,4.65Z"/>
    <path class="cls-10" d="M1678.61,1292.24c-26.99,160.27-145.41,450.25-444.43,499.94-331.8,55.14-636.19-67.18-636.19-67.18-4.56,12.01,123.62,67.58,133.08,52.7l-19.1-5.08s-69.83-12.42-284.95-133.83c-195.84-110.53-248.91-224.13-248.91-224.13,0,0-164.72-264.35-51.47-571.69,0,0-21.96,561.58,765.41,710.06,481.42,90.79,694.02-99.32,786.56-260.79Z"/>
  </g>
  <g id="Layer_2" data-name="Layer 2">
    <path class="cls-3" d="M977.13,448.16c26.02-64.59,102.16-125.86,163.25-157.47,41.48-21.35,87.31-35.06,134.07-37.17,27.17-.79,54.16.42,79.57,12.46,28.63,13.57,45.87,40.64,43.9,72.98-1.26,21.33-9.68,41.13-20.8,58.4-36.63,55.12-97.69,89.76-161.65,102.08-34.1,4.98-43.13-43.34-9.55-51.02,53.16-9.83,112.86-43.84,135.67-94.38,4.46-11.03,7.83-25.14-.6-34.49-5.73-6.25-15.18-9.73-24.41-11.69-6.98-1.5-15.03-2.31-22.61-2.46-44.91-1.58-88.79,12.88-128.08,34.03-12.01,6.42-23.68,13.51-35.11,20.99-34.96,22.37-66.2,50.86-98.44,77.45-9.71,7.85-19.6,15.72-29.8,23.02,0,0-2.22,1.56-2.22,1.56-.72.49-1.53,1.06-2.17,1.43,0,0-1.86,1.05-1.86,1.05-11.01,6.2-23.85-4.98-19.16-16.77h0Z"/>
    <path class="cls-3" d="M1234.47,441.24c11.79-2.42,23.78-4.42,35.68-6.02,48.36-6.21,97.63-8.91,146.24,1.62,37.01,8.23,74.99,29.07,85.38,69.12,8.85,33.79-1.56,69.69-30.43,90.2-55.79,40.51-173.57,27.38-231.24-4.18-3.16-1.88-6.56-3.93-9.44-6.24-12.85-10.07-3.74-30.29,12.13-27.58,1.93.38,5.23.89,7.05,1.37,19.19,4.17,38.97,6.33,58.64,8.16,21.33,1.84,42.99,3.06,64.23,2.29,22.56-1.25,48.51-4.01,66.47-17.04,7.72-5.8,10.83-13.19,10.7-22.79-.01-9.92-3.39-17.73-11.02-23.98-29.86-23.05-92.24-22.19-129.56-20.46-21.72,1.18-43.58,3.35-65.12,6.53-33.75,4.61-42.77-42.87-9.7-50.99h0Z"/>
    <path class="cls-9" d="M642.14,1760.2s-294.14-98.83-488.34-379.03c-194.21-280.2-41.56-695.1,195.57-882.57,297.34-235.06,685.02-106.6,685.02-106.6"/>
    <path class="cls-9" d="M642.14,1760.2s277.03,139.78,612.85,81c335.82-58.78,523.68-458.97,490.37-759.41-27.42-247.29-193.62-412.19-304.59-496.3"/>
    <ellipse class="cls-5" cx="787.67" cy="1407.46" rx="56.52" ry="39.74" transform="translate(-814.65 1591.72) rotate(-67.33)"/>
    <path class="cls-9" d="M771.47,1015.33c-33.31,72.1-118.76,103.55-190.86,70.25-72.1-33.31-103.55-118.76-70.25-190.86"/>
    <path class="cls-9" d="M1344.65,1272.48c-33.31,72.1-118.76,103.55-190.86,70.25-72.1-33.31-103.55-118.76-70.25-190.86"/>
    <path class="cls-5" d="M1333.47,863.56c52.33,9.2,129.56,56.11,141.98,132.42,10.36,63.63-47.25,43.78-84.81,7.92-44.58-42.56-67.81-51.25-108.05-74.59-37.86-21.96-24.43-78.99,50.88-65.75Z"/>
    <path class="cls-5" d="M863.78,645.01c-40.74-34.11-126.37-62.97-192.74-23.33-55.34,33.05-3.06,64.34,48.56,69.98,61.27,6.7,82.88,18.86,126.65,34.62,41.18,14.82,76.16-32.18,17.53-81.27Z"/>
    <ellipse class="cls-4" cx="868.01" cy="1223.27" rx="63.94" ry="108.77" transform="translate(-605.58 1503.21) rotate(-65.4)"/>
  </g>
</svg>