<?xml version="1.0" encoding="UTF-8"?>
<svg xmlns="http://www.w3.org/2000/svg" viewBox="0 0 2000 2000">
  <defs>
    <style>
      .cls-1 {
        opacity: .3;
      }

      .cls-1, .cls-2 {
        fill: #1800ff;
      }

      .cls-3, .cls-4, .cls-5 {
        fill: #0e2a47;
      }

      .cls-4 {
        stroke-width: 25.9px;
      }

      .cls-4, .cls-5, .cls-6 {
        stroke: #0e2a47;
        stroke-linecap: round;
        stroke-linejoin: round;
      }

      .cls-7 {
        fill: #fff;
      }

      .cls-5, .cls-6 {
        stroke-width: 29.58px;
      }

      .cls-8 {
        fill: #f2f2f2;
      }

      .cls-9 {
        fill: #f97316;
      }

      .cls-10 {
        fill: #b22200;
        opacity: .4;
      }

      .cls-11 {
        fill: #999;
      }

      .cls-6 {
        fill: none;
      }

      .cls-12 {
        fill: #8b5cf6;
      }
    </style>
  </defs>
  <g id="Layer_3" data-name="Layer 3">
    <path class="cls-9" d="M1297.21,312.13c32.08-30.27,84.62-68.13,144.49-65.11,74.23,3.76,39.72,83.09-33.97,106.76,3.74-.72,132.35-24.83,135.64,33.37,1.12,19.69-11.54,30.51-29.6,35.76,1.21.87,156.54,113.89,183.62,280.33,15.9,97.71-15.05,215.07-80.55,303.73h0c-48.49,65.65-115.92,115.59-197.29,130.13-27.19,4.86-52.85,7.32-76.84,7.91-144.69,3.68-229.02-59.37-229.02-59.37-7.59-66.22-73.2-127.56-213.56-167.98-33.97-9.78-61.06-17.97-82.55-24.72-18.47-32.17-106.66-198.24-24.4-370.5,14.17-29.7,33.43-59.58,58.96-88.98,190.6-219.45,445.01-121.4,445.01-121.4l.06.08ZM1495.05,659.62c21.48,20.35,54.36,31.54,48.31-4.71-7.24-43.45-51.35-70.03-81.2-75.16-42.95-7.38-50.47,25.15-28.85,37.59,22.99,13.21,36.23,18.11,61.74,42.28ZM1184.2,502.56c23.5,8.36,43.33-18.51,9.81-46.36-23.29-19.35-72.16-35.62-109.9-12.88-31.46,18.95-1.61,36.67,27.84,39.77,34.94,3.69,47.27,10.57,72.25,19.46ZM1176.48,893.02c9.9-14.78,9.51-32.4-.87-39.36-10.39-6.97-26.84-.63-36.75,14.14-9.92,14.78-9.52,32.41.87,39.37,10.38,6.97,26.84.63,36.75-14.15Z"/>
    <path class="cls-12" d="M1677.76,1222.53c21.65,32.58,0,71.61,0,71.61l-72.98,17.62c17.12-46.81-4.06-74.72-4.06-74.72,22.34-4.24,53.14-10.02,77.05-14.51Z"/>
    <path d="M1160.17,766.33c18.46-26.19,98.9,23.33,89.22,41.12-15.06,27.66-60.91,13.54-60.91,13.54,0,0-42.74-34.2-28.31-54.67Z"/>
    <path class="cls-8" d="M1639.41,1641.51l-64.08,89.51c-200-33.56-324.04-43.93-326.24-44.13l390.32-45.38Z"/>
    <path class="cls-8" d="M774.76,1224.49l-148.66-27.69c3.59-21.07,3.88-44.11.1-68.89,48.24,47.16,98.93,78.04,148.55,96.59Z"/>
    <path class="cls-8" d="M1029.9,1219.82s35.01,46.19,20.57,135.59c-12.14-30.16-44.83-101.67-93.67-112.79h0c27.28-4.77,52-12.76,73.1-22.81h0Z"/>
    <path class="cls-8" d="M1737.4,1134.76l-114.53,24c4.85-20.05,7.1-40.48,7.81-59.57h.01l106.71,35.57Z"/>
    <path class="cls-8" d="M1622.87,1158.76l114.53-24c-6.92,13.57-12.26,46.33-16.17,80.92,0,0-15.69,2.93-36.68,6.86-23.91,4.49-54.71,10.26-77.05,14.51-17.24,3.28-29.44,5.65-29.6,5.79,23.8-22.95,37.48-53.06,44.97-84.07Z"/>
    <path class="cls-8" d="M1009.65,1541.06l-14.48,2.41-13.47-2.56v-104.01l82.32,19.99,271.8-55.13c2.66,1.39,5.58,2.52,8.73,3.46,18.51,5.52,58.45-4.19,98.35-25.17l213.68-43.33-2.7,59.68-1.71,37.68-642.52,106.99Z"/>
    <path class="cls-8" d="M987.78,1717.28l-6.08-176.37,13.47,2.56,14.48-2.41c1.21.41,78.58,27.31,93.56,79.25l596.58-89.45-1.07,55.68-.91,48.18-58.4,6.79-390.32,45.38h-.01l-261.3,30.38Z"/>
    <path class="cls-8" d="M1514.52,1275.68c10.08-3.13,19.27-7.02,27.64-11.62-11.25,50.15-58.63,91.03-106.04,115.97-39.9,20.98-79.84,30.69-98.35,25.17-3.15-.94-6.07-2.07-8.73-3.46-3.01-1.57-5.67-3.47-7.92-5.8h0s91.4-30.24,136.36-109.48l.26-3.59c16.93,1.32,35.82-.72,56.79-7.2Z"/>
    <path class="cls-8" d="M1157.19,1254.91c-.68,8.71-2.08,17.45-4.4,26.15-4.62,17.34-11.38,31.59-19.24,43.21-23.63,34.96-57.1,46.15-71.35,46.14,79.85-82.45,31.6-200.93,31.6-200.93,2.05-3.05,3.82-6.11,5.33-9.18,8.34-17.04,13.38-34.15,14.84-51.08l.46.04s48.53,71.04,42.76,145.66Z"/>
    <path class="cls-8" d="M1357.72,1212.89c17.71,33.55,50.37,66.15,100.01,70l-.26,3.59c-44.96,79.23-136.36,109.46-136.36,109.46h0c-3.59-3.72-6.1-8.55-7.22-14.91-1.88-10.57.09-25.37,7.34-46.28,5.81-16.73,11.67-37.11,16.82-56.6,7.28-27.47,13.2-53.19,15.73-64.44l3.92-.82Z"/>
    <path class="cls-8" d="M1361.91,1207.76s-.46,2.15-1.32,5.96l-196.61,41.2c5.78-74.62-42.76-145.66-42.76-145.66l-.46-.04c.71-7.91.62-15.78-.28-23.58,0,0,84.33,63.05,229.02,59.37v.17c-3.5,12.97.35,37.64,12.41,62.58Z"/>
    <path class="cls-8" d="M1093.8,1169.48s48.25,118.48-31.6,200.93c-3.74,0-6.16-.77-6.71-2.11-.62-1.47-2.3-6.15-5.02-12.89,14.44-89.4-20.57-135.59-20.57-135.59h0c29.2-13.89,51.44-31.72,63.9-50.35Z"/>
    <path class="cls-8" d="M1320.68,1381.03c1.12,6.35,3.63,11.19,7.22,14.92,2.25,2.33,4.91,4.23,7.92,5.8l-271.8,55.13-1.13-57.03-.62-31.55c.55,1.34,2.97,2.11,6.71,2.11,14.25.01,47.72-11.18,71.35-46.14l204.52-46.11c-5.16,19.49-11.01,39.86-16.82,56.6-7.25,20.91-9.22,35.71-7.34,46.28Z"/>
    <path class="cls-8" d="M1157.19,1254.91l196.61-41.2c-2.53,11.25-8.45,36.97-15.73,64.44l-204.52,46.11c7.86-11.62,14.63-25.87,19.24-43.21,2.32-8.7,3.72-17.44,4.4-26.15Z"/>
    <path class="cls-9" d="M1616.84,1006.98c.19.89,8.95,41.95,7.05,92.21-.71,19.09-2.96,39.51-7.81,59.57-7.49,31.01-21.17,61.12-44.97,84.07-8.35,8.06-17.94,15.23-28.95,21.24-8.37,4.59-17.56,8.49-27.64,11.62-20.97,6.48-39.86,8.53-56.79,7.2-49.64-3.85-82.3-36.45-100.01-70-.9-1.71-1.78-3.42-2.6-5.13-12.07-24.94-15.91-49.61-12.41-62.58v-.17c23.99-.59,49.65-3.05,76.84-7.91,81.37-14.55,148.8-64.48,197.29-130.12Z"/>
    <path class="cls-12" d="M1652.17,1434.06c109.05,5.04,102.34,88.59,102.34,88.59l-54.72,8.21-596.58,89.45c-14.99-51.94-92.35-78.84-93.56-79.25l642.52-106.99Z"/>
    <path class="cls-8" d="M1721.23,1215.68c-5.97,52.7-8.66,109.67-8.66,109.67l-55.99,11.36-213.68,43.33c47.41-24.94,94.79-65.82,106.04-115.97,11.01-6.01,20.61-13.17,28.95-21.24.15-.14,12.36-2.51,29.6-5.79,0,0,21.19,27.91,4.06,74.72l72.98-17.62s21.65-39.03,0-71.61c20.99-3.92,36.68-6.86,36.68-6.86Z"/>
    <path class="cls-8" d="M341.49,1591.45l487.95,94.99c-1.27.28-165.56,35.66-273.85,69.75,0,0-86.07-124.83-214.1-164.75Z"/>
    <path class="cls-8" d="M1062.89,1399.85l1.13,57.03-82.32-19.99-449.43-109.13c24.4-10.69,46.86-27.5,64.56-49.62h.01s93.86,17.69,93.86,17.69l2.44.1c-2.3,9.67-3.23,21.35-1.66,35.33l103.69,20.13s-.35-5.39.26-13.44l267.46,61.9Z"/>
    <path class="cls-8" d="M721.81,1254.59s-21.34,10.59-28.67,41.34l-2.44-.1-93.86-17.67h-.01c17.7-22.09,30.64-49.46,36.07-81.36l148.66,27.69h.01c65.19,24.38,128.54,27.45,182.02,18.11h0c48.84,11.14,81.52,82.64,93.67,112.81,2.71,6.74,4.4,11.42,5.02,12.89l.62,31.55-267.46-61.9c1.41-19.09,8.18-53.17,37.53-65.73l-111.15-17.63Z"/>
    <path class="cls-8" d="M501.24,1392.32c10.53-30.54,14.75-58.42,14.75-58.42,5.51-1.75,10.93-3.79,16.27-6.14l449.43,109.13v104.01l-506.77-96.07c11.37-14.79,19.99-34.13,26.32-52.51Z"/>
    <path class="cls-12" d="M715.03,1254.59l111.15,17.63c-29.35,12.55-36.12,46.64-37.53,65.73-.6,8.05-.26,13.44-.26,13.44l-103.69-20.13c-1.57-13.98-.64-25.66,1.66-35.33,7.33-30.75,28.67-41.34,28.67-41.34Z"/>
    <path class="cls-12" d="M366.63,1490.89l-.3,1.56c-21.48,8.06-28.2,68.46-28.2,68.46l-95.29-17.44c-4.71-38.25,27.19-70.93,27.19-70.93l96.59,18.36Z"/>
    <path class="cls-8" d="M378.07,1426.46l-119.11-22.59-2.21-37.53-1.17-19.91,105.17,19.91h.01c3.78,21.57,9.3,42.65,17.31,60.12Z"/>
    <path class="cls-8" d="M201.91,1459.6l-2.01-63.21,59.05,7.49,119.11,22.59c10.44,22.72,25.1,39.3,45.65,42.83,21.22,3.67,38.06-7.34,51.21-24.47l506.77,96.07,6.08,176.37-158.33-30.83h-.01l-487.95-94.99-136.22-26.52-3.36-105.33ZM366.63,1490.89l-96.59-18.36s-31.9,32.67-27.19,70.93l95.29,17.44s6.71-60.39,28.2-68.46l.3-1.56Z"/>
    <path class="cls-8" d="M360.76,1366.34h-.01l-105.17-19.91-2.25-38.31c26.29-15.09,54.78-25.98,80.79-24.39l-116.77-19.8-5.2-26.66-13.16-67.62.91-.18,147.47,27.32h.03c.23,15.54,2.15,30.95,5.72,45.57-.09,1.87-2.77,64.76,7.63,123.97Z"/>
    <path class="cls-8" d="M359.37,1124.42c-2.44,6.59-4.51,13.36-6.2,20.27l-165.02-30.74,125.99-52.34,1.97-.28c20.37,40.89,43.26,63.09,43.26,63.09Z"/>
    <path class="cls-8" d="M347.38,1196.8l-147.47-27.32-.91.18-10.84-55.71,165.02,30.74c-4.13,16.9-6.02,34.58-5.76,52.11h-.03Z"/>
    <polygon class="cls-8" points="256.75 1366.34 258.96 1403.87 199.91 1396.39 256.75 1366.34"/>
    <path class="cls-12" d="M334.12,1283.74c-26.01-1.59-54.5,9.3-80.79,24.39-51.01,29.25-93.69,74.27-93.69,74.27-7.38-102,52.52-145.12,52.52-145.12l5.2,26.66,116.77,19.8Z"/>
    <path class="cls-9" d="M352.58,1124.42s-22.88-22.2-43.26-63.09c-33.7-67.59-60.55-186.23,34.11-339.96,141.32-229.52,449.59-198.99,449.59-198.99l.14.06c-82.26,172.26,5.93,338.33,24.4,370.5,21.49,6.75,48.58,14.95,82.55,24.72,140.36,40.41,205.97,101.76,213.56,167.98.9,7.79.99,15.67.28,23.58-1.47,16.93-6.51,34.03-14.84,51.08-1.5,3.07-3.28,6.14-5.33,9.18-12.46,18.63-34.7,36.45-63.9,50.33-21.1,10.05-45.82,18.03-73.1,22.79-53.48,9.34-116.83,6.26-182.02-18.11h-.01c-49.62-18.55-100.32-49.43-148.55-96.59,3.78,24.79,3.49,47.82-.1,68.89-5.43,31.9-18.37,59.27-36.07,81.34-17.7,22.12-40.16,38.94-64.56,49.62-5.34,2.34-10.77,4.39-16.27,6.14-15.22,4.84-30.92,7.37-46.47,7.42-13.85.05-27.59-1.88-40.78-5.9-8.98-2.74-17.24-6.79-24.77-11.94-25.4-17.34-42.56-47.13-50.85-81.11-3.58-14.63-5.49-30.03-5.72-45.57-.26-17.53,1.63-35.21,5.76-52.11,1.69-6.91,3.76-13.69,6.2-20.27Z"/>
    <path d="M1543.37,654.91c6.05,36.25-26.83,25.06-48.31,4.71-25.51-24.17-38.76-29.07-61.74-42.28-21.62-12.44-14.1-44.97,28.85-37.59,29.85,5.13,73.96,31.71,81.2,75.16Z"/>
    <path d="M1194.01,456.21c33.52,27.85,13.69,54.72-9.81,46.36-24.98-8.89-37.31-15.77-72.25-19.46-29.44-3.1-59.3-20.82-27.84-39.77,37.74-22.74,86.61-6.47,109.9,12.88Z"/>
    <path class="cls-11" d="M1175.61,853.66c10.38,6.96,10.78,24.58.87,39.36-9.9,14.78-26.37,21.12-36.75,14.15-10.39-6.96-10.79-24.59-.87-39.37,9.9-14.77,26.36-21.11,36.75-14.14Z"/>
    <path class="cls-8" d="M1619.76,850.34h0c-9.66,58.64-35.3,112.73-77.6,150.51-31.22,27.87-65.11,45.55-97.34,57.02-116.17,41.33-254.78,21.02-347.1-25.06-30.83-15.39-29.94-14.3-25.3-31.61-25.64-25.22-76.72-67.59-132.72-70.01,0,0-58.56-39.89-95.39-114.27-14.97-30.28-26.36-66.27-28.73-107.62-3.21-56.03,17.12-112.25,52.09-160.72,0,0,0-.01.01-.01,54.26-75.2,143.73-131.74,235.14-139.97,126.18-11.36,163.4,75.21,220.71,99.37,58.14,22.18,146.5-14.01,228.41,80.86,59.34,68.71,82.81,170.59,67.82,261.54Z"/>
    <path class="cls-12" d="M1124.14,753.63c-106.3,38.87-264.8-54.56-279.84,63.27-14.97-30.28-26.36-66.27-28.73-107.62-3.21-56.03,17.12-112.25,52.09-160.72,0,0,0-.01.01-.01,41.27-25.52,109.72-52.34,205.38-39.59,166.2,22.14,172.35,200.33,51.08,244.68Z"/>
    <path class="cls-12" d="M1290.33,820.32c48.08,100.82,227.89,143.14,154.48,237.55,32.3-11.31,66.13-29.16,97.35-57.03,42.3-37.77,67.94-91.86,77.6-150.49,0,0,0,0,0-.02-11.22-46.58-40.91-112.78-118.26-169.46-134.39-98.48-266.01,24.43-211.16,139.45Z"/>
    <polyline class="cls-6" points="1682.96 430.1 1732.62 444.19 1675.58 493.18 1723.23 508.62"/>
    <polyline class="cls-6" points="1743.65 270.3 1817.87 291.36 1732.62 364.57 1803.83 387.64"/>
    <polyline class="cls-6" points="1588.59 243.8 1635.98 257.25 1581.55 304 1627.02 318.73"/>
    <path class="cls-7" d="M761.72,628.62c1.49-6.92,73.94-215.95,258.13-276.7,137.35-45.3,257.72-19.67,257.72-19.67l-14.11,15.99s-15.04,26.17,16.17,24.15c31.21-2.01,81.56-92.35,141.95-97.31,60.4-4.96,54.94,25.92,54.94,25.92l5.67-30.13-21.29-24.01-37.63.5-57.07,14.97-43.29,30.2-32.21,19.13s-184.22-69.46-339.24,34.23c-155.02,103.69-189.74,282.74-189.74,282.74Z"/>
    <path class="cls-7" d="M1391.37,357.95s-20.47,23.15,5.7,25.84,127.51-20.5,141.6,3.84c0,0,.67-36.73-53.69-38.74-54.36-2.01-93.62,9.06-93.62,9.06Z"/>
    <path class="cls-7" d="M285.02,992.3s-5.07-226.14,177.72-347.38c147.98-98.15,312.03-83.62,312.03-83.62l14.67-30.79s-252.84-39.51-400.26,130.79c-147.41,170.29-104.17,331.01-104.17,331.01Z"/>
    <path class="cls-2" d="M1574.28,1055.59c2.89-3.02,5.79-5.89,8.68-8.63-2.84,2.93-5.75,5.81-8.68,8.63Z"/>
    <path class="cls-7" d="M774.78,878.94c-2.5-1.55-49.81-25.71-60.89-5.58-11.07,20.13,183.21,75.55,283.88,115.29,100.67,39.74,112.16,110.54,112.16,110.54,0,0-28.43-126.17-151.42-163.42-122.99-37.25-183.73-56.83-183.73-56.83Z"/>
    <path class="cls-2" d="M479.82,1561.25c-1.03-.17-1.62-.28-1.75-.35l1.75.35Z"/>
  </g>
  <g id="Layer_4" data-name="Layer 4">
    <path class="cls-2" d="M510.5,1341.32l-1.3,17.58-13.42,72.48-44.3,34.23-5.85-.98c11.55-15.02,42.54-54.06,48.83-72.31,7.14-20.68,11.37-40.14,13.36-50.55l2.68-.45Z"/>
    <polygon class="cls-2" points="987.69 1662.58 986.2 1671.25 985.22 1642.96 987.69 1662.58"/>
    <polygon class="cls-2" points="355.95 1365.43 248.79 1346.43 249.96 1319.53 254.05 1320.32 255.58 1346.43 355.95 1365.43"/>
    <polygon class="cls-6" points="1338.06 1268.85 1338.06 1278.15 1335.25 1278.96 1338.06 1268.85"/>
    <path class="cls-2" d="M356.95,1339.97c-2.21-19-3.32-37.37-3.82-52.96l3.82,52.96Z"/>
    <path class="cls-1" d="M445.24,1464.57l.39.06c-.09.1-.17.21-.24.31l-.14-.37Z"/>
    <path class="cls-1" d="M509.21,1333.9s-.44,2.91-1.39,7.87l-27.47,4.66s-15.86,76.07-45.01,92.47l-.12-.32c10.68-21.7,22.9-54.22,27.29-95.27.08-.67.15-1.32.22-1.98,15.55-.05,31.26-2.59,46.47-7.42Z"/>
    <path class="cls-1" d="M397.19,1327.48s-7.02,80.48,4.88,129.59l-30.78-26.61c-8.01-17.47-13.53-38.55-17.31-60.12-10.39-59.21-7.72-122.11-7.63-123.97,8.28,33.98,25.44,63.77,50.85,81.11Z"/>
    <path class="cls-1" d="M418.08,1460.05l4.14.69c-.6,1.26-1.17,2.43-1.71,3.52l-2.43-4.22Z"/>
    <path class="cls-1" d="M462.74,1341.32c-.06.66-.14,1.31-.22,1.98-3.58,30.84-18.91,70.15-31,97.37-.85.31-1.71.57-2.59.77-9.31,2.19-18.6-2.59-27.2-10.56-11.44-48.83-4.54-107.4-4.54-107.4,7.54,5.15,15.8,9.2,24.77,11.94,13.18,4.03,26.92,5.96,40.78,5.9Z"/>
    <path class="cls-1" d="M1699.29,718.13c-.49.37-.98.73-1.47,1.12.71-4.15.96-6.44.96-6.44,0,0,.22,1.85.5,5.33Z"/>
    <path class="cls-1" d="M1135.87,767.38s-3.21,66.05,66.58,86.85c69.79,20.8,76.51-42.95,71.14-52.35-5.37-9.4-10.07,41.61-51.67,32.88-41.61-8.72-88.06-33.93-86.05-67.39Z"/>
    <path class="cls-1" d="M1534.31,368.02s2.01,45.3-79.53,31.21c-81.54-14.09-96.64,11.07-54.36,42.28,42.28,31.21,121.25,30.23,143.67,6.56l-24.9-21.02s19.13-11.71,22.15-19.76c3.02-8.05,7.05-25.17-7.05-39.26Z"/>
    <path class="cls-1" d="M1478.74,1282.81s-90.81,112.15-133.89,113.59c-43.08,1.44-18.77-29.43-12.78-73.83,5.99-44.41,25.64-100.02,25.64-100.02,0,0,67.46,63.03,121.02,60.27Z"/>
    <path class="cls-1" d="M755.05,712.29s-45.99,131.19-1.04,159.22c44.95,28.02,63.57,21.43,63.57,21.43,0,0-71.7-82.5-62.52-180.65Z"/>
    <path class="cls-1" d="M1146.42,1176.73s-55.41,65.4-82.4,74.79c-26.99,9.4,26.03,69.3,5.05,111.32-20.97,42.02-21.64-21.64-21.64-21.64l-40.6-57.13-25.13-36.6,38.22-18.23,43.29-30.74,35.93-38.22,21.35-31.31s18.57,23.97,25.95,47.76Z"/>
    <path class="cls-1" d="M1059.81,1455.87l-4.33-25.78-495.01-118.08c10.32-8.04,27.9-23.29,36.36-33.87h.01s93.86,17.69,93.86,17.69l2.44.1c-2.3,9.67-3.23,21.35-1.66,35.33l103.69,20.13s-.35-5.39.26-13.44l267.46,61.9,1.13,57.03-4.21-1.02Z"/>
    <path class="cls-1" d="M721.81,1254.59s-21.34,10.59-28.67,41.34l-2.44-.1-93.86-17.67h-.01c17.7-22.09,30.64-49.46,36.07-81.36l148.66,27.69h.01c65.19,24.38,128.54,27.45,182.02,18.11h0c48.84,11.14,81.52,82.64,93.67,112.81,2.71,6.74,4.4,11.42,5.02,12.89l.62,31.55-267.46-61.9c1.41-19.09,8.18-53.17,37.53-65.73l-111.15-17.63Z"/>
    <path class="cls-1" d="M626.76,1136.14c-.22,9.44-1.44,34.58-8.04,64.01l-5.74-49.35c10.5-3.27,13.17-10.21,13.78-14.65Z"/>
    <path class="cls-1" d="M626.76,1136.14c.06-2.6.05-4,.05-4,0,0,.27,1.65-.05,4Z"/>
    <path class="cls-1" d="M619.97,1210.93c-1.16-.57-2.3-1.14-3.43-1.75.78-3.05,1.52-6.07,2.19-9.04l1.25,10.79Z"/>
    <polygon class="cls-1" points="243.86 1516.72 338.1 1527.18 327.33 1558.92 258.96 1547.65 235.59 1530.86 243.86 1516.72"/>
    <path class="cls-1" d="M687.21,1289.11c3.49,6.72,110.93,20.72,110.93,20.72,0,0-9.76,41.18-15.8,41.18s-58.89-6.04-69.46-10.57c-10.57-4.53-35.23-17.11-35.23-17.11l9.56-34.23Z"/>
    <path class="cls-1" d="M207.04,1271.98s-34.28,46.86-42.06,98.43l101.87-76.51,37.66-14.03-59.29-11.21-38.19,3.32Z"/>
    <path class="cls-1" d="M774.76,1224.49l-148.66-27.69c3.59-21.07,3.88-44.11.1-68.89,48.24,47.16,98.93,78.04,148.55,96.59Z"/>
    <path class="cls-1" d="M1361.91,1207.76s-.46,2.15-1.32,5.96l-196.61,41.2c5.78-74.62-42.76-145.66-42.76-145.66l-.46-.04c.71-7.91.62-15.78-.28-23.58,0,0,84.33,63.05,229.02,59.37v.17c-3.5,12.97.35,37.64,12.41,62.58Z"/>
    <path class="cls-1" d="M359.37,1124.42c-2.44,6.59-4.51,13.36-6.2,20.27l-165.02-30.74,125.99-52.34,1.97-.28c20.37,40.89,43.26,63.09,43.26,63.09Z"/>
    <path class="cls-1" d="M252.61,1245.03l-8.75-67.41,103.52,19.18h.03c.23,15.54,2.15,30.95,5.72,45.57-.04.67-.4,9.25-.37,22.69-47.53-9.45-81.24-16.4-100.15-20.03Z"/>
    <path class="cls-1" d="M356.95,1339.97l-12.34-2.35-90.57-17.3-.72-12.19c9.9-5.69,20.13-10.77,30.41-14.83,19.24,14.87,49.83-19.95,69.39-6.3v.03c.5,15.59,1.61,33.96,3.82,52.96Z"/>
    <path class="cls-1" d="M360.76,1366.34h-.01l-4.8-.91,4.8.86s.01.04.01.05Z"/>
    <path class="cls-1" d="M378.07,1426.46l-119.11-22.59-2.21-37.53-1.17-19.91,105.17,19.91h.01c3.78,21.57,9.3,42.65,17.31,60.12Z"/>
    <path class="cls-1" d="M353.17,1144.69c-4.13,16.9-6.02,34.58-5.76,52.11h-.03l-103.52-19.18-7.1-54.62,116.41,21.69Z"/>
    <path class="cls-1" d="M508.37,1368.9c-.04.17-.09.33-.13.5-.05-.18,0-.35.13-.5Z"/>
    <path class="cls-1" d="M508.37,1368.9l4.26-17.51c-1.11,5.08-2.52,11.04-4.26,17.51Z"/>
    <polygon class="cls-1" points="538.32 1324.27 977.85 1435.95 534.5 1328.31 538.32 1324.27"/>
    <polygon class="cls-1" points="1652.1 1340.45 1647.09 1367.51 981.7 1540.9 981.7 1436.93 1021.92 1447.16 1072.25 1450.18 1206.14 1435.08 1324.93 1411.93 1361.91 1411.09 1444.25 1385.13 1652.1 1340.45"/>
    <path class="cls-1" d="M940.31,1426.83c-2.17,6.98-6.24,105.04-6.24,105.04l-459.14-87.04c11.37-14.79,19.99-34.12,26.32-52.51.12-.35.24-.71.36-1.05l194.72,34.52-187.95-56.89c1.74-6.47,3.15-12.43,4.26-17.51h.01s21.85-23.09,21.85-23.09l405.81,98.53Z"/>
    <polygon class="cls-1" points="981.7 1436.93 981.7 1540.9 970.03 1538.69 977.85 1472.54 970.88 1434.26 977.85 1435.95 981.7 1436.93"/>
    <path class="cls-1" d="M532.27,1327.77l2.23.54-21.85,23.08c2.32-10.64,3.36-17.48,3.36-17.48,5.51-1.75,10.93-3.79,16.27-6.14Z"/>
    <polygon class="cls-1" points="981.7 1436.89 981.7 1436.93 977.85 1435.95 981.7 1436.89"/>
    <path class="cls-1" d="M938.25,1650.85l-458.28-89.58c28.77,4.67,370.76,46.18,457.12,56.63l-2.02-57.59-490.06-92.39c-6.55,2.1-13.63,2.69-21.29,1.36-7.83-1.34-14.79-4.59-21-9.34l-165.92-31.28,5.39,143.45,99.3,19.33,487.95,94.99h.01l110.8,21.58-2.01-57.18ZM366.34,1492.45c-21.48,8.07-28.2,68.46-28.2,68.46l-95.29-17.44c-4.71-38.25,27.19-70.93,27.19-70.93l96.59,18.36-.3,1.56Z"/>
    <path class="cls-1" d="M1283.56,1293.85l51.68-14.88-6.21,22.24s-8.35,79.83-25.25,78.84c-8.95-.53-15.78-44.75-20.22-86.19Z"/>
    <path class="cls-1" d="M1338.06,1268.85v-17.33s-29.7,8.41-57.08,15.8c-2.25-25.29-3.41-44.79-3.41-44.79l77.55-14.78-17.06,61.1Z"/>
    <path class="cls-1" d="M1692.3,1567.45c-4.98,3.52-628.24,92.97-628.24,92.97,0,0-6.83-85.66-49.85-103.58-43.02-17.92,64.84,21.09,71.01,40.77,6.17,19.68,12.86,27.06,12.86,27.06l594.93-92.79-.88,45.21"/>
    <path class="cls-1" d="M435.22,1643.06c6.83.04,325.03,59.04,325.03,59.04l19.07-17.38-365.42-77.85,21.32,36.19Z"/>
    <polygon class="cls-1" points="1081.18 1584.78 1747.8 1501.51 1737.4 1524.2 1103.21 1620.3 1081.18 1584.78"/>
    <path class="cls-1" d="M1399.28,1702.75c10.89,1.29,201.43-22.55,201.43-22.55l23.46-36.91s-316.31,43.02-307.27,42.98,82.38,16.48,82.38,16.48Z"/>
    <path class="cls-10" d="M1659.8,823.32c-15.04,91.4-81.9,256.92-252.21,285.89-188.98,32.14-299.34-64.73-299.34-64.73-2.57,6.86,4.57,32.76,12.58,57.56l-10.89-2.86s3.42-108.9-118.13-149.57c-121.54-40.67-174.23-56.69-174.23-56.69,0,0-107.12-146.91-43.24-322.32,0,0-11.31,320.1,437.76,403.03,274.57,50.71,395.33-58.1,447.72-150.33Z"/>
    <path class="cls-10" d="M1508.68,1277.38c-18.65,5.13-35.6,6.7-50.95,5.51-49.64-3.85-82.3-36.45-100.01-70-.9-1.71-1.77-3.42-2.6-5.13-12.07-24.94-15.91-49.61-12.41-62.58v-.17c23.99-.59,49.65-3.05,76.84-7.91,59.75-10.68,111.98-40.44,154.73-81.5.31,1.7,28.7,159.42-65.6,221.78Z"/>
    <path class="cls-10" d="M615.51,1172.5c-13.6,35.06-59.53,130.96-153.79,127.57-67.43-2.42-95.57-52.97-107.33-94.49l-.44-22.45-3.47-43.01,2.1-15.71-18.46-31.93s-68.13-109.4-54.08-183.9c.75-3.95,30.75,93.49,75.9,109.73,169.45,60.97,178.32-37.64,178.32-37.64l7.49,41.66,35.23,58.38,31.17,28.48,4.84,41.57,2.52,21.71Z"/>
    <path class="cls-10" d="M1085.95,1166.31c-52.78,40.8-196.7,75.59-339.85,11.31-163.07-73.24-201.15-228.75-201.15-228.75-14.14,35.31,8.95,84.97,34.16,124.28-12.03-15.94-39.27-56.27-40.74-96.12-.12,1.07-.14,1.81-.06,2.17.91,4.03-8.98-2.01-8.98-2.01,0,0-54.36-28.2-105.37-44.53-44.39-14.23,53.36-143.86,158.05-126.02,62.12,10.59,8.04,240.32,227.5,332.48,173,72.65,293.94,2.01,297.97-56.38,0,0,6.07,42.56-21.53,83.57Z"/>
  </g>
  <g id="Layer_2" data-name="Layer 2">
    <path class="cls-3" d="M1258.19,343.77c6.53-16.33,17.43-30.53,29.63-43.02,34.09-34.39,78.44-61.55,127.39-67.47,0,0,6.85-.75,6.85-.75,2.27-.07,8.11-.45,10.35-.49,13.77.03,27.28.93,40.19,7.08,24.71,11.68,30.66,37.51,20.46,61.46-9.48,22.35-27.57,39.49-47.65,52.04-15.74,9.66-33.17,16.39-51.27,19.85-8.02,1.53-15.77-3.73-17.31-11.75-1.54-8.03,3.74-15.79,11.77-17.31,28.35-5.53,56.41-21.12,72.51-45.39,4.82-7.82,8.34-15.71,6.68-23.7-2.79-9.99-17.34-11.87-26.58-12.51-1.94-.04-6.46-.07-8.31-.11-1.69.1-6.57.35-8.34.46-5.48.6-11.24,1.47-16.58,2.69-30.17,7.05-57.14,23.67-81.59,42.31-19.06,14.64-36.34,31.79-56.2,45.51-6.24,4.65-14.71-1.56-12.01-8.91h0Z"/>
    <path class="cls-3" d="M1404.84,339.28c36.65-7.27,91.62-12.57,125.88,5.02,12.27,6.14,23.16,17.56,26.59,31.3,3.66,14.08,1.77,29.43-6.95,41.33-25.78,35.24-102.05,27.18-136.98,10.82-3.52-1.68-7.26-3.66-10.4-6.1-7.32-5.64-2.21-17.21,6.79-15.74,24.05,4.86,49.75,7.09,74.14,6.46,14.54-.71,45.04-4,43.92-22.89.68-27.96-60.64-26.14-80.24-25.03-12.34.71-24.85,2.02-37.1,3.86-19.23,2.69-24.46-24.34-5.64-29.04h0Z"/>
    <path class="cls-6" d="M817.57,892.94c-21.65-37.71-139.14-259.47,34.56-459.49,190.6-219.45,445.02-121.39,445.02-121.39"/>
    <path class="cls-3" d="M582.49,861.91c-16.29,32.39-27.42,68.4-26,104.87,2.38,54.23,32.86,102.72,69.93,140.76,90.87,95.03,223.24,149.11,353.73,114.78,34.51-9.47,69.96-25.27,94.3-51.77,4.67-5.22,8.5-10.59,11.46-16.47,1.49-3.46,3.67-7.58,4.91-11.14,8.97-22.07,11.96-46.48,5.82-69.46-15.26-57.58-76.63-94.2-128.22-116.51-22.2-9.62-45.56-17.62-68.77-24.47-26.95-7.97-55.64-15.07-82.13-24.53-26.28-9.46-52.65-19.52-77.12-33.22-.65-.37-1.96-1.16-2.6-1.55-3.62-2.19-4.78-6.9-2.59-10.53,1.93-3.2,5.77-4.4,9.14-3.29,0,0,40.65,10.3,40.65,10.3,34.4,8.55,68.44,18.43,102.24,29.13,13.55,4.18,27.85,8.08,41.31,12.55,20.67,6.72,41.56,14.53,61.32,23.58,62.33,28.31,129.42,75.52,138.14,148.95,3.05,25.62-2.1,51.88-12.31,75.16-.82,1.98-2.77,6.01-3.63,7.93-4.23,8.43-9.74,16.29-15.76,22.98-31.38,34.24-75.19,52.95-119.34,63.61-144.79,33.9-292.23-32.47-386.29-142.47-29.06-33.94-52.25-75.31-59.36-120.35-6.54-41.43.5-86.11,25-120.72,4.46-6.28,9.41-12.28,15.16-17.45,5.67-5.04,14.09.82,11.59,7.77,0,0-.57,1.54-.57,1.54h0Z"/>
    <path class="cls-6" d="M1114.43,1109.25s60.5,88.59,38.36,171.8c-22.15,83.22-93.95,95.3-97.31,87.24-3.36-8.05-38.92-112.07-98.69-125.69"/>
    <path class="cls-6" d="M1093.79,1169.48s48.26,118.48-31.6,200.93"/>
    <path class="cls-6" d="M1029.9,1219.82s35.01,46.19,20.56,135.59"/>
    <path class="cls-6" d="M1113.68,1085.63s114.61,85.7,305.87,51.47c191.26-34.23,305.49-263.82,277.84-433.87-27.18-167.1-183.64-280.34-183.64-280.34"/>
    <path class="cls-6" d="M1342.71,1145.18c-3.74,13.85.91,41.07,15.01,67.71,23.76,44.98,74.39,88.3,156.8,62.8,61.1-18.91,89.45-66.75,101.56-116.92,17.75-73.41.76-151.79.76-151.79"/>
    <path class="cls-6" d="M1542.16,1264.07c-11.25,50.15-58.63,91.03-106.04,115.97-39.9,20.98-79.84,30.69-98.35,25.17-3.15-.94-6.07-2.07-8.73-3.46-15.81-8.23-22.15-25.65-7.79-67,16.77-48.33,33.88-127,33.88-127"/>
    <path class="cls-6" d="M1389.86,1264.07s-22.92,76.03-75.97,116.97"/>
    <path class="cls-6" d="M1321.11,1395.94s91.4-30.23,136.36-109.47"/>
    <path class="cls-3" d="M400.7,1066.65c-32.78,44.28-49.41,89.2-43.94,144.76,3.95,36.31,17.56,75.53,48.15,97.57.63.42,2.08,1.45,2.68,1.86.51.36,4.03,2.37,4.63,2.77,2.98,1.58,6.63,3.27,9.74,4.47,3.16,1.13,7.29,2.34,10.64,3.17,2.03.59,4.67.96,6.74,1.45,12.88,2.38,26.25,2.69,39.25,1.01,0,0,4.63-.61,4.63-.61l4.6-.86c1.31-.25,3.3-.6,4.59-.96,2.64-.62,6.51-1.57,9.08-2.41,1.21-.39,3.31-.92,4.49-1.4,51.45-16.76,91.18-62.21,102.85-114.91,5.55-23.76,5.97-48.25,2.76-72.51-1.8-19.09,25.25-23.3,29.26-4.39,1.25,7.29,2.16,14.67,2.74,22.09,6.13,68.9-22.92,138.81-80.95,178.16-17.31,12-36.87,21.02-57.25,26.34-23.45,6.07-48.3,7.37-72.13,2.84-2.66-.59-5.99-1.17-8.61-1.89,0,0-5.68-1.57-5.68-1.57-2.74-.67-5.94-2.02-8.71-2.93-2.74-1.15-5.84-2.41-8.49-3.75,0,0-5.48-2.86-5.48-2.86-.95-.54-5.72-3.51-6.56-4.03-50.1-34.2-67.42-99.71-63.77-157.54,3.65-47.33,20.67-102.4,66.93-123.97,6.29-2.62,11.9,4.75,7.83,10.08h0Z"/>
    <path class="cls-3" d="M418.98,925.03c18.26.55,36.49,4.31,54.03,9.31,26.41,7.96,52.19,19.59,73.93,36.76,2.41,1.95,4.83,3.9,7.17,5.93,6.17,5.36,6.83,14.71,1.48,20.88-5.05,5.84-13.65,6.7-19.77,2.37-16.07-10.71-32.26-21.52-49.3-30.74-14.68-8.21-30.25-15.45-45.77-21.95-7.42-3.05-16.76-6.62-24.3-9.29-7.26-2.74-5.17-13.42,2.54-13.26h0Z"/>
    <path class="cls-6" d="M793.03,522.37s-308.27-30.53-449.59,198.99c-151.93,246.75,9.13,403.06,9.13,403.06"/>
    <path class="cls-6" d="M509.21,1333.9s-10.83,71.59-41.07,110.93c-13.15,17.12-29.98,28.13-51.21,24.47-20.55-3.54-35.21-20.12-45.65-42.83-30.34-66.1-24.94-184.13-24.94-184.13"/>
    <path class="cls-6" d="M397.19,1323.48s-11.47,97.5,19.73,145.82c0,0,37.76-48.08,45.81-127.98"/>
    <ellipse class="cls-5" cx="1157.17" cy="892.94" rx="32.21" ry="22.65" transform="translate(-163.56 1519.08) rotate(-63.02)"/>
    <path class="cls-6" d="M1148.32,669.99c-18.83,41.17-67.46,59.27-108.63,40.45-41.17-18.83-59.27-67.46-40.45-108.63"/>
    <path class="cls-6" d="M1475.55,815.31c-18.83,41.17-67.46,59.27-108.63,40.45-41.17-18.83-59.27-67.46-40.45-108.63"/>
    <path class="cls-5" d="M1462.17,579.75c29.84,5.13,73.96,31.7,81.2,75.16,6.04,36.24-26.83,25.05-48.32,4.7-25.5-24.16-38.75-29.06-61.74-42.28-21.63-12.43-14.09-44.96,28.86-37.58Z"/>
    <path class="cls-5" d="M1194.01,456.21c-23.29-19.35-72.16-35.62-109.9-12.88-31.47,18.96-1.61,36.68,27.83,39.78,34.94,3.69,47.27,10.57,72.26,19.46,23.5,8.36,43.33-18.51,9.81-46.36Z"/>
    <path class="cls-6" d="M205.37,1237.27s-59.91,43.12-52.52,145.12c0,0,97.98-103.35,174.49-98.65l-116.77-19.8-29.19-149.99,125.98-52.34"/>
    <path class="cls-6" d="M1623.9,1099.19l106.71,35.57c-17.45,34.23-24.83,190.59-24.83,190.59l-269.67,54.69"/>
    <polyline class="cls-6" points="525.48 1327.77 1057.23 1456.88 1329.03 1401.75"/>
    <line class="cls-6" x1="1357.72" y1="1212.89" x2="1157.17" y2="1254.91"/>
    <line class="cls-6" x1="1730.61" y1="1134.76" x2="1616.08" y2="1158.76"/>
    <line class="cls-6" x1="774.78" y1="1224.49" x2="626.11" y2="1196.8"/>
    <line class="cls-6" x1="346.38" y1="1144.69" x2="181.36" y2="1113.95"/>
    <polyline class="cls-6" points="468.14 1444.83 988.37 1543.46 1645.38 1434.06 1649.79 1336.7"/>
    <polyline class="cls-6" points="246.54 1308.12 252.17 1403.87 371.28 1426.46"/>
    <line class="cls-6" x1="1057.23" y1="1456.88" x2="1055.48" y2="1368.3"/>
    <polyline class="cls-6" points="252.17 1403.87 193.11 1396.39 198.48 1564.93 980.99 1717.27 1691.01 1634.73 1693 1530.86"/>
    <line class="cls-6" x1="193.11" y1="1396.39" x2="249.96" y2="1366.34"/>
    <path class="cls-6" d="M1002.84,1541.05s78.47,26.91,93.57,79.25l651.31-97.65s6.71-83.55-102.34-88.59"/>
    <polyline class="cls-6" points="974.9 1436.89 974.9 1540.9 980.99 1717.27"/>
    <path class="cls-6" d="M822.66,1686.45s-165.15,35.52-273.87,69.75c0,0-86.07-124.83-214.09-164.74"/>
    <path class="cls-6" d="M1242.28,1686.9s143.19,12.79,326.25,44.14l64.08-89.51"/>
    <line class="cls-6" x1="695.77" y1="1251.53" x2="974.9" y2="1295.82"/>
    <path class="cls-6" d="M715.02,1254.58s-36.87,18.29-30.33,76.68l103.69,20.13s-3.94-61.33,37.79-79.17"/>
    <line class="cls-6" x1="788.64" y1="1337.95" x2="1056.1" y2="1399.84"/>
    <line class="cls-6" x1="1133.54" y1="1324.26" x2="1338.06" y2="1278.15"/>
    <path class="cls-3" d="M1146.56,1393.09c40.66-11.01,81.61-20.76,122.7-29.95,13.7-2.93,27.46-5.59,41.38-7.29,8.12-.99,15.51,4.79,16.5,12.91.92,7.56-4.09,14.49-11.32,16.22-13.66,3.2-27.48,5.45-41.35,7.43-41.74,5.54-83.54,10.52-125.5,14.2-8.32.51-10.4-11.12-2.4-13.51h0Z"/>
    <path class="cls-6" d="M1571.11,1242.83c.52-.5,143.33-27.16,143.33-27.16"/>
    <path class="cls-6" d="M1600.71,1237.05s21.18,27.9,4.07,74.71l72.98-17.62s21.64-39.03,0-71.61"/>
    <line class="cls-6" x1="193.11" y1="1169.48" x2="340.59" y2="1196.8"/>
    <line class="cls-6" x1="590.05" y1="1278.15" x2="683.92" y2="1295.82"/>
    <line class="cls-6" x1="248.79" y1="1346.43" x2="353.96" y2="1366.34"/>
    <path class="cls-3" d="M496.96,1377.74c23.72,2.57,49.51,9.2,72.93,14.24,30.83,6.96,66.03,14.98,96.66,22.42,8.04,1.93,16.09,3.87,24.12,5.89,2.99.75,4.81,3.79,4.05,6.78-.68,2.71-3.24,4.45-5.94,4.2-8.24-.77-16.47-1.62-24.7-2.47-14.22-1.4-34.91-3.73-49.34-5.33-12.28-1.39-37-4.26-49.27-5.72-23.78-3.06-50.26-5.38-73.52-10.86-17.92-4.77-13.46-30.64,5-29.16h0Z"/>
    <path class="cls-3" d="M973.54,1478.23l-157.38-19.5c-8.11-1.01-13.88-8.4-12.87-16.51,1.02-8.54,9.29-14.46,17.7-12.67,0,0,155.27,32.24,155.27,32.24,10.32,2.51,7.91,17.36-2.72,16.45h0Z"/>
    <path class="cls-3" d="M972.88,1488.16c29.38-5.95,62.65-9.11,92.54-12.86,40.78-4.8,83.14-9.69,123.86-14.05,10.33-1.11,20.66-2.22,31-3.26,3.49-.35,6.61,2.2,6.96,5.69.33,3.27-1.91,6.21-5.06,6.86-10.19,2.07-20.38,4.06-30.58,6.06-30.58,6-61.21,11.77-91.84,17.52-39.75,6.99-82.83,16.41-122.85,20.75-17.05,1.15-20.69-22.7-4.04-26.71h0Z"/>
    <path class="cls-3" d="M1472.39,1419.91c46.17-12.16,93.01-23.05,139.72-32.88,2.64-.53,8.13-1.56,10.79-2.01,7.21-1.26,14.44-2.42,21.73-3.21,8.14-.88,15.45,5,16.33,13.14.82,7.55-4.19,14.39-11.42,16.04-7.14,1.64-14.35,2.91-21.58,4.08-14.42,2.36-29.07,3.95-43.58,5.62-34.41,3.97-69.42,7.57-103.93,10.59-1.05.09-3.93.33-5.02.4-7.82,1.33-10.61-9.33-3.04-11.77h0Z"/>
    <path class="cls-3" d="M735.17,1541.34c39.52,4.09,79,8.59,118.46,13.17,34.71,4.38,84.14,9.18,118.08,15.65,8.03,1.51,13.32,9.25,11.81,17.29-1.45,7.68-8.63,12.84-16.27,11.96-34.13-3.92-83.06-14.14-117.37-20.3-29.27-5.55-58.54-11.16-87.76-16.94-9.74-1.93-19.49-3.85-29.22-5.85-4.1-.84-6.75-4.85-5.91-8.95.79-3.84,4.38-6.4,8.19-6.02h0Z"/>
    <path class="cls-3" d="M485.92,1561.34c122.08,18.97,247.48,40.16,369.09,61.91,40.9,7.48,81.75,15.21,122.41,23.9,16.87,4.23,12.49,28.69-5.03,26.54-142.56-24.47-286.41-56.17-427.88-86.59-20.31-4.49-40.63-8.91-60.91-13.54-7.53-1.91-5.77-13.11,2.32-12.22h0Z"/>
    <path class="cls-6" d="M263.27,1472.54s-31.9,32.67-27.2,70.92l95.3,17.45s6.71-60.4,28.19-68.45"/>
    <path class="cls-3" d="M197.89,1445.06c64.37,10.79,129.25,24.21,192.93,38.56,21.29,5.08,42.48,10.66,63.37,17.79,3.85,1.31,5.9,5.5,4.59,9.34-1.08,3.17-4.12,5.12-7.31,4.97-22.06-1.03-43.82-3.61-65.48-6.7-31.23-4.63-65.78-10.69-97.06-16.14-32.27-5.82-64.51-11.81-96.56-18.76-18.54-4.71-13.51-31.44,5.52-29.06h0Z"/>
    <path class="cls-3" d="M1360.29,1619.93c109.37-22.09,220.01-37.63,331.17-46.94,7.45-.53,13.92,5.07,14.45,12.52.5,7.04-4.53,13.21-11.36,14.31-55.1,8.59-110.53,14.36-166.05,19.42-55.61,4.85-111.24,8.95-167.12,10.15-5.65.02-6.78-8.13-1.09-9.46h0Z"/>
    <path class="cls-3" d="M979.13,1614.03l67.08-3.33c11.97-.25,14.03,16.49,2.43,19.19,0,0-65.8,13.48-65.8,13.48-8.03,1.64-15.87-3.53-17.51-11.55-1.89-8.8,4.82-17.42,13.8-17.8h0Z"/>
    <ellipse class="cls-4" cx="1205.02" cy="788.8" rx="36.44" ry="61.99" transform="translate(-10.94 1560.64) rotate(-65.61)"/>
  </g>
</svg>